<svg xmlns="http://www.w3.org/2000/svg" viewBox="0 0 512 512" role="img" aria-label="摸鱼贪吃蛇图标">
  <defs>
    <linearGradient id="bg" x1="0" y1="0" x2="1" y2="1">
      <stop offset="0%" stop-color="#63b3ff"/>
      <stop offset="55%" stop-color="#66e3a1"/>
      <stop offset="100%" stop-color="#ffd56a"/>
    </linearGradient>
    <linearGradient id="snake" x1="0" y1="0" x2="0" y2="1">
      <stop offset="0%" stop-color="#ecfff6"/>
      <stop offset="100%" stop-color="#78f0aa"/>
    </linearGradient>
  </defs>
  <rect width="512" height="512" rx="120" fill="#08111f"/>
  <circle cx="256" cy="256" r="200" fill="url(#bg)" opacity="0.16"/>
  <path d="M123 274c0-72 53-126 124-126 64 0 109 30 143 80 22 33 33 67 33 103 0 90-72 159-160 159-51 0-95-22-124-56-26-31-40-70-40-114 0-17 3-35 10-46 12-21 43-11 43 20 0 20-4 33-4 54 0 61 46 109 111 109 70 0 125-53 125-125 0-28-7-53-23-76-25-37-59-56-102-56-54 0-95 42-95 98 0 20 5 38 12 52 10 20-14 40-33 27-20-13-29-37-29-73Z" fill="url(#snake)"/>
  <circle cx="203" cy="204" r="18" fill="#06111b"/>
  <circle cx="318" cy="250" r="12" fill="#06111b"/>
  <circle cx="347" cy="118" r="36" fill="#ffd56a" opacity="0.95"/>
  <path d="M347 88c8 0 14 6 14 14v8h8c8 0 14 6 14 14s-6 14-14 14h-8v8c0 8-6 14-14 14s-14-6-14-14v-8h-8c-8 0-14-6-14-14s6-14 14-14h8v-8c0-8 6-14 14-14Z" fill="#fff6cf"/>
</svg>
